HIERARCHY
ROOT Hips
{
	OFFSET 0.00000 0.00000 0.00000
	CHANNELS 6 Xposition Yposition Zposition Zrotation Yrotation Xrotation 
	JOINT LHipJoint
	{
		OFFSET 0 0 0
		CHANNELS 3 Zrotation Yrotation Xrotation
		JOINT LeftUpLeg
		{
			OFFSET 1.40001 -1.72600 0.84541
			CHANNELS 3 Zrotation Yrotation Xrotation
			JOINT LeftLeg
			{
				OFFSET 2.34760 -6.44999 0.00000
				CHANNELS 3 Zrotation Yrotation Xrotation
				JOINT LeftFoot
				{
					OFFSET 2.50650 -6.88655 0.00000
					CHANNELS 3 Zrotation Yrotation Xrotation
					JOINT LeftToeBase
					{
						OFFSET 0.12464 -0.34243 1.95563
						CHANNELS 3 Zrotation Yrotation Xrotation
						End Site
						{
							OFFSET 0.00000 -0.00000 1.00479
						}
					}
				}
			}
		}
	}
	JOINT RHipJoint
	{
		OFFSET 0 0 0
		CHANNELS 3 Zrotation Yrotation Xrotation
		JOINT RightUpLeg
		{
			OFFSET -1.40958 -1.72600 0.84541
			CHANNELS 3 Zrotation Yrotation Xrotation
			JOINT RightLeg
			{
				OFFSET -2.37905 -6.53640 0.00000
				CHANNELS 3 Zrotation Yrotation Xrotation
				JOINT RightFoot
				{
					OFFSET -2.50470 -6.88163 0.00000
					CHANNELS 3 Zrotation Yrotation Xrotation
					JOINT RightToeBase
					{
						OFFSET -0.12236 -0.33619 1.81785
						CHANNELS 3 Zrotation Yrotation Xrotation
						End Site
						{
							OFFSET -0.00000 -0.00000 0.93746
						}
					}
				}
			}
		}
	}
	JOINT LowerBack
	{
		OFFSET 0 0 0
		CHANNELS 3 Zrotation Yrotation Xrotation
		JOINT Spine
		{
			OFFSET -0.02146 1.96915 0.26424
			CHANNELS 3 Zrotation Yrotation Xrotation
			JOINT Spine1
			{
				OFFSET 0.01522 1.99484 0.02086
				CHANNELS 3 Zrotation Yrotation Xrotation
				JOINT Neck
				{
					OFFSET 0 0 0
					CHANNELS 3 Zrotation Yrotation Xrotation
					JOINT Neck1
					{
						OFFSET -0.02954 1.71757 0.03505
						CHANNELS 3 Zrotation Yrotation Xrotation
						JOINT Head
						{
							OFFSET 0.04170 1.65781 -0.11024
							CHANNELS 3 Zrotation Yrotation Xrotation
							End Site
							{
								OFFSET 0.01600 1.81465 -0.05144
							}
						}
					}
				}
				JOINT LeftShoulder
				{
					OFFSET 0 0 0
					CHANNELS 3 Zrotation Yrotation Xrotation
					JOINT LeftArm
					{
						OFFSET 2.77679 1.60868 -0.78649
						CHANNELS 3 Zrotation Yrotation Xrotation
						JOINT LeftForeArm
						{
							OFFSET 4.62672 -0.00000 -0.00000
							CHANNELS 3 Zrotation Yrotation Xrotation
							JOINT LeftHand
							{
								OFFSET 3.11018 -0.00000 -0.00000
								CHANNELS 3 Zrotation Yrotation Xrotation
								JOINT LeftFingerBase
								{
									OFFSET 0 0 0
									CHANNELS 3 Zrotation Yrotation Xrotation
									JOINT LeftHandIndex1
									{
										OFFSET 0.74383 -0.00000 -0.00000
										CHANNELS 3 Zrotation Yrotation Xrotation
										End Site
										{
											OFFSET 0.59970 -0.00000 -0.00000
										}
									}
								}
								JOINT LThumb
								{
									OFFSET 0 0 0
									CHANNELS 3 Zrotation Yrotation Xrotation
									End Site
									{
										OFFSET 0.60885 -0.00000 0.60885
									}
								}
							}
						}
					}
				}
				JOINT RightShoulder
				{
					OFFSET 0 0 0
					CHANNELS 3 Zrotation Yrotation Xrotation
					JOINT RightArm
					{
						OFFSET -2.73247 1.63658 -0.74740
						CHANNELS 3 Zrotation Yrotation Xrotation
						JOINT RightForeArm
						{
							OFFSET -4.55919 -0.00000 -0.00000
							CHANNELS 3 Zrotation Yrotation Xrotation
							JOINT RightHand
							{
								OFFSET -3.22748 -0.00000 -0.00000
								CHANNELS 3 Zrotation Yrotation Xrotation
								JOINT RightFingerBase
								{
									OFFSET 0 0 0
									CHANNELS 3 Zrotation Yrotation Xrotation
									JOINT RightHandIndex1
									{
										OFFSET -0.70088 -0.00000 -0.00000
										CHANNELS 3 Zrotation Yrotation Xrotation
										End Site
										{
											OFFSET -0.56507 -0.00000 -0.00000
										}
									}
								}
								JOINT RThumb
								{
									OFFSET 0 0 0
									CHANNELS 3 Zrotation Yrotation Xrotation
									End Site
									{
										OFFSET -0.57370 -0.00000 0.57370
									}
								}
							}
						}
					}
				}
			}
		}
	}
}
MOTION
Frames: 8
Frame Time: .0083333
-0.6435 16.31 -42.1873 0 0 0 0 0 0 -21 0 0 0 0 0 0 0 0 0 0 0 0 0 0 21 0 0 0 0 0 0 0 0 0 0 0 0 0 0 0 0 0 0 0 0 0 0 -16 0 0 21 0 0 11 0 0 0 -8 0 0 0 0 0 0 0 0 0 0 0 0 0 0 0 0 0 0 0 0 8 0 0 0 0 0 0 0 0 0 0 0 0 0 0 0 0 0
-0.6435 16.3100 -42.1873 -0.9677 -3.4817 18.9822 0.0000 0.0000 0.0000 -14.2725 -11.8546 -50.0099 2.7403 10.2622 29.8301 0.1822 5.4752 -11.9006 0.0927 -1.9640 -5.4061 0.0000 0.0000 0.0000 24.4696 -4.1337 -19.1089 -2.2537 -9.3756 26.9773 -1.2374 22.5703 -23.8560 -0.0054 0.4743 -1.3033 1.4375 1.3737 -16.2123 1.0285 1.5188 -4.5323 0.5664 0.7545 4.2644 0.6160 -1.6062 -2.2336 -3.1014 -1.9696 7.0639 -1.1551 -1.0580 2.5843 0.0000 0.0000 0.0000 -92.0617 21.0687 11.1366 8.8986 -14.9988 -1.1738 -0.0000 -0.0000 13.4062 15.9077 -16.7910 -4.7067 -7.1250 0.0000 -0.0000 -7.9203 12.6831 6.0474 0.0000 0.0000 0.0000 85.6861 13.0216 33.1890 -25.6020 36.8130 -8.6481 0.0000 -0.0000 -11.5230 -19.3112 -35.4182 11.4795 7.1250 -0.0000 -0.0000 18.6269 -66.0813 -9.6206
-0.6239 16.2887 -41.9757 -1.1943 -3.6875 19.2665 0.0000 0.0000 0.0000 -13.6953 -12.0367 -50.0406 2.1297 9.1312 26.2067 0.0947 6.1522 -10.9621 0.2314 -3.0961 -8.5464 0.0000 0.0000 0.0000 24.6256 -5.4147 -18.6139 -2.1254 -9.1225 26.1792 -1.0159 23.9144 -23.2177 -0.0000 0.0278 -0.0765 1.6330 1.3980 -15.7408 1.1655 1.5315 -4.9415 0.5836 0.7591 3.5808 0.3208 -1.5656 -1.9263 -3.2222 -1.8976 6.9534 -1.1346 -1.0305 2.4938 -0.0000 -0.0000 0.0000 -92.6253 22.2419 9.8305 8.8454 -14.9137 -1.1600 -0.0000 -0.0000 13.8607 15.8299 -16.7341 -4.6672 -7.1250 0.0000 -0.0000 -7.9706 12.7492 6.0756 -0.0000 -0.0000 0.0000 85.0878 13.4000 34.2018 -26.5016 37.6997 -9.1927 0.0000 -0.0000 -12.6686 -18.5654 -35.8762 11.1351 7.1250 -0.0000 -0.0000 19.9953 -66.2904 -10.4470
-0.6046 16.2775 -41.7268 -0.8562 -5.0983 19.1138 0.0000 0.0000 0.0000 -13.8909 -11.5452 -49.6686 1.6917 8.1920 23.2988 0.1103 6.2180 -11.3469 0.1804 -2.7355 -7.5431 0.0000 0.0000 0.0000 23.6478 -5.9563 -17.2043 -1.9811 -8.8266 25.2544 -0.8089 25.1221 -22.6651 -0.0011 -0.2115 0.5812 1.0703 1.8585 -15.8500 0.8092 2.2285 -3.8830 0.6842 1.1034 4.7535 1.0405 -1.5645 -5.6838 -3.6052 -1.8909 7.5845 -1.4570 -1.0544 3.4116 -0.0000 -0.0000 0.0000 -92.4574 20.6551 8.6922 8.5008 -14.3613 -1.0729 -0.0000 -0.0000 14.9867 15.8999 -16.7998 -4.7066 -7.1250 0.0000 -0.0000 -7.9257 12.6750 6.0530 -0.0000 -0.0000 0.0000 84.8608 16.2053 34.4034 -27.3639 38.5240 -9.7249 0.0000 -0.0000 -12.7284 -18.2832 -36.6644 11.1604 7.1250 -0.0000 -0.0000 21.2265 -66.9291 -11.4234
-0.5935 16.2591 -41.4976 -0.6160 -6.0329 19.1095 0.0000 0.0000 0.0000 -13.8421 -11.3651 -49.2554 1.2788 7.1666 20.2097 0.1562 5.6347 -11.5877 0.0461 -1.3857 -3.8107 0.0000 0.0000 0.0000 22.9720 -6.3048 -16.0325 -1.8494 -8.5451 24.3824 -0.8244 25.2073 -22.7992 -0.0088 0.6072 -1.6686 0.6536 2.1009 -16.2978 0.6056 2.6181 -3.4341 0.8110 1.2885 5.4619 1.2491 -1.4843 -6.4006 -3.6759 -1.8045 7.3485 -1.5222 -1.0126 3.4699 0.0000 0.0000 0.0000 -92.5772 20.3241 6.7274 8.1159 -13.7406 -0.9795 -0.0000 -0.0000 16.6465 16.0039 -17.0403 -4.8044 -7.1250 0.0000 -0.0000 -7.8630 12.4188 6.0466 0.0000 0.0000 0.0000 84.5541 17.7387 35.1344 -28.2277 39.3250 -10.2676 0.0000 -0.0000 -12.1718 -19.0450 -36.8610 11.6995 7.1250 -0.0000 -0.0000 20.5635 -67.3347 -11.2430
-0.5801 16.2434 -41.2778 -0.7357 -6.7122 19.1285 0.0000 0.0000 0.0000 -13.5011 -11.1133 -48.9687 0.9524 6.2146 17.4085 0.1627 5.3006 -11.3741 0.0157 -0.8101 -2.2264 0.0000 0.0000 0.0000 22.6912 -6.5300 -14.8671 -1.7308 -8.2813 23.5718 -0.7880 25.3470 -22.6694 -0.0364 1.2307 -3.3839 0.4914 2.2902 -17.2224 0.7399 2.8723 -3.1023 1.1482 1.4027 6.2993 0.9533 -1.4596 -5.3539 -3.6426 -1.7677 6.4969 -1.4240 -0.9870 2.9780 -0.0000 -0.0000 0.0000 -93.1276 20.5330 4.7125 7.8547 -13.3170 -0.9184 -0.0000 -0.0000 18.2717 15.9382 -17.2814 -4.8491 -7.1250 0.0000 -0.0000 -7.9130 12.1795 6.1256 -0.0000 -0.0000 0.0000 83.6636 18.9941 36.3495 -28.6716 39.7272 -10.5502 0.0000 -0.0000 -12.7966 -20.0936 -35.4678 11.9841 7.1250 -0.0000 -0.0000 17.7543 -66.3539 -9.2680
-0.5727 16.2179 -41.0648 -0.9211 -7.4477 19.1675 0.0000 0.0000 0.0000 -13.3746 -10.4477 -48.9376 0.7016 5.3539 14.9207 0.1681 4.8894 -11.0769 0.0303 -1.1235 -3.0886 0.0000 0.0000 0.0000 22.4248 -5.9588 -13.4649 -1.6327 -8.0550 22.8813 -0.7531 25.1135 -22.3408 -0.0538 1.4972 -4.1179 0.7626 2.5581 -15.2375 0.4947 3.2294 -4.6988 0.6680 1.5978 3.5618 0.6901 -1.4344 -3.1208 -3.1927 -1.7405 6.8477 -1.2008 -0.9500 2.6804 0.0000 -0.0000 0.0000 -92.9454 23.9123 4.4483 8.0425 -13.6218 -0.9621 -0.0000 -0.0000 17.7416 15.4959 -16.8026 -4.5822 -7.1250 0.0000 -0.0000 -8.1941 12.7125 6.2558 0.0000 -0.0000 0.0000 83.9243 16.5504 36.8294 -29.8765 40.7873 -11.3288 0.0000 -0.0000 -13.4688 -20.1954 -32.9695 11.3195 7.1250 -0.0000 -0.0000 15.2678 -64.0054 -7.1129
-0.5671 16.1844 -40.8541 -1.1667 -8.0053 19.2751 0.0000 0.0000 0.0000 -13.2078 -9.7855 -49.0166 0.5111 4.5823 12.7209 0.0891 4.7301 -9.2601 0.4874 -4.4765 -12.4211 0.0000 0.0000 0.0000 22.2725 -5.2313 -12.0659 -1.5476 -7.8523 22.2663 -0.7416 24.7007 -22.0457 -0.0776 1.7967 -4.9442 0.9389 2.5914 -16.1613 0.5400 3.2235 -4.0841 0.6789 1.5905 4.7135 0.2038 -1.2204 -2.7303 -2.7871 -1.4789 5.7942 -0.9593 -0.8087 2.2673 -0.0000 -0.0000 0.0000 -93.3632 23.4176 2.4595 7.8466 -13.3039 -0.9165 -0.0000 -0.0000 18.5755 15.4846 -16.5355 -4.5083 -7.1250 0.0000 -0.0000 -8.1959 12.9858 6.2099 -0.0000 -0.0000 0.0000 83.7040 18.2956 37.6529 -30.2683 41.1223 -11.5857 0.0000 -0.0000 -14.1616 -20.3964 -32.0547 11.1632 7.1250 -0.0000 -0.0000 14.2862 -63.1732 -6.3680
